<?xml version="1.0" encoding="UTF-8"?>
<svg version="1.1" xmlns="http://www.w3.org/2000/svg" width="512" height="512">
<path d="M0 0 C0.79890656 -0.00067474 1.59781311 -0.00134949 2.42092896 -0.00204468 C15.40416503 0.01532583 27.98968906 0.67634421 40.75 3.25 C41.61012695 3.42160645 42.47025391 3.59321289 43.35644531 3.77001953 C81.53888509 11.63855546 116.96377185 28.56950871 145.59765625 55.25 C147.57869194 57.09081719 149.61437254 58.82724643 151.6875 60.5625 C189.59667826 93.74256548 212.38503575 146.69748329 216.75 196.25 C216.90406475 199.22809592 216.95885362 202.20188046 216.98828125 205.18359375 C216.9980751 206.01066833 217.00786896 206.83774292 217.01795959 207.68988037 C217.19523729 226.55699229 216.92102044 244.75339718 212.75 263.25 C212.53569336 264.20310059 212.32138672 265.15620117 212.10058594 266.13818359 C200.68513481 315.03187345 171.40035851 360.60738374 130.75 390.25 C129.70457031 391.01699219 128.65914063 391.78398437 127.58203125 392.57421875 C102.7171158 410.27309646 102.7171158 410.27309646 89.75 414.25 C86.75 413.25 86.75 413.25 85.47558594 410.98095703 C84.86118652 409.50925049 84.86118652 409.50925049 84.234375 408.0078125 C83.78835938 406.94175781 83.34234375 405.87570312 82.8828125 404.77734375 C82.42648437 403.65457031 81.97015625 402.53179687 81.5 401.375 C81.02820313 400.25996094 80.55640625 399.14492188 80.0703125 397.99609375 C76.62136119 389.63591644 76.62136119 389.63591644 77.75 386.25 C83.69 388.23 83.69 388.23 89.75 390.25 C88.84507812 388.61804688 88.84507812 388.61804688 87.921875 386.953125 C75.56242957 364.35859439 75.56242957 364.35859439 77.75 356.25 C80.76031744 355.31576355 81.61650268 355.20550089 84.75 356.25 C84.51925781 355.20328125 84.28851563 354.1565625 84.05078125 353.078125 C83.12722584 348.8342823 82.24652236 344.58236655 81.37939453 340.32666016 C80.94914526 338.22347887 80.51231497 336.12163597 80.06982422 334.02099609 C72.5358005 297.86715898 75.95068392 273.39774184 92.46484375 240.87255859 C93.63504751 238.56766115 94.80309523 236.26166782 95.96899414 233.95458984 C97.0814082 231.75884032 98.2024468 229.56743004 99.33374023 227.38134766 C104.3037262 217.62083669 108.90904414 207.25743466 108.875 196.125 C108.87886719 194.85269531 108.87886719 194.85269531 108.8828125 193.5546875 C108.84134737 191.08883434 108.84134737 191.08883434 107.75 188.25 C107.09 188.25 106.43 188.25 105.75 188.25 C104.37577362 189.99477149 103.07413378 191.79715813 101.8125 193.625 C98.07348243 199.03434505 98.07348243 199.03434505 94.75 201.25 C90.55463026 201.90261307 89.06934785 201.46494567 85.5 199.0625 C82.34691242 195.83775134 80.72418518 193.90892627 80.76879883 189.3137207 C81.3534012 182.47971142 83.78435018 177.5017123 87.04296875 171.55664062 C89.77145401 166.2414731 90.20620301 163.09898138 88.75 157.25 C87.4118293 154.56918374 87.4118293 154.56918374 85.5625 152.3125 C82.51374423 148.26631179 79.71644981 144.15029586 77.01171875 139.8671875 C76.59535156 139.33351562 76.17898438 138.79984375 75.75 138.25 C73.46877282 138.02671712 73.46877282 138.02671712 71.39453125 140.375 C70.44468307 141.32754757 69.50103895 142.28630758 68.5625 143.25 C68.06347168 143.75547363 67.56444336 144.26094727 67.05029297 144.78173828 C63.81332696 148.0858134 60.75715984 151.50246454 57.7578125 155.0234375 C54.52926578 158.60373251 51.07889433 161.96303507 47.63134766 165.33154297 C44.7821885 168.13549118 42.07025479 170.99449139 39.46484375 174.02734375 C35.1470892 179.02150269 30.48927071 183.65678002 25.8125 188.3125 C24.52956055 189.60124023 24.52956055 189.60124023 23.22070312 190.91601562 C18.75316863 195.37673466 14.23448184 199.70116335 9.41162109 203.77709961 C7.59635139 205.31081147 7.59635139 205.31081147 5.75390625 207.65625 C2.68335008 210.09832976 -0.55772829 209.75412114 -4.3125 209.75 C-15.82591337 210.10983242 -24.18429054 212.70714797 -32.25 221.25 C-34.952999 224.94287398 -37.29127383 228.81611909 -39.625 232.75 C-40.93599263 234.90065917 -42.24849205 237.05040055 -43.5625 239.19921875 C-44.19285156 240.23739746 -44.82320312 241.27557617 -45.47265625 242.34521484 C-66.75326708 277.12498238 -92.33820634 294.35490412 -131.25 305.25 C-130.6620361 308.41143666 -130.45784763 309.08082952 -127.8359375 311.21484375 C-116.89732216 317.93503931 -104.82059438 323.42078544 -91.73046875 323.34765625 C-90.1980957 323.34282227 -90.1980957 323.34282227 -88.63476562 323.33789062 C-87.57966797 323.32951172 -86.52457031 323.32113281 -85.4375 323.3125 C-83.82584961 323.30573242 -83.82584961 323.30573242 -82.18164062 323.29882812 C-79.53770317 323.28707729 -76.89388048 323.27064787 -74.25 323.25 C-82.38472458 344.0367942 -98.09552386 362.43483197 -112.97265625 378.75 C-114.57584758 380.5099356 -116.16584379 382.28193666 -117.74609375 384.0625 C-118.55175781 384.97 -119.35742188 385.8775 -120.1875 386.8125 C-121.28384766 388.05193359 -121.28384766 388.05193359 -122.40234375 389.31640625 C-124.25 391.25 -124.25 391.25 -126.25 392.25 C-135.45568942 385.43989915 -143.98951285 378.17740299 -152.25 370.25 C-153.075 369.46625 -153.9 368.6825 -154.75 367.875 C-194.57139474 329.15975512 -214.8365341 272.93346207 -216.25 218.25 C-217.0051453 158.88614034 -192.18158474 103.18907201 -151.1875 60.9375 C-146.48282221 56.37802831 -141.38480734 52.31055159 -136.25 48.25 C-135.2496875 47.44433594 -134.249375 46.63867188 -133.21875 45.80859375 C-102.80564277 21.58942764 -65.79536343 6.1559372 -27.25 1.25 C-26.54713867 1.1557373 -25.84427734 1.06147461 -25.12011719 0.96435547 C-16.77665092 -0.02252512 -8.38974458 0.00638069 0 0 Z M-116.91796875 64.75 C-124.78343378 73.18198932 -128.75972063 81.88695798 -128.57421875 93.40234375 C-128.13775452 97.23586695 -126.80682152 99.4009703 -124.25 102.25 C-123.79625 102.8275 -123.3425 103.405 -122.875 104 C-118.04555736 107.71495588 -112.07246368 107.95440219 -106.25 107.25 C-97.72067062 105.32773548 -90.96342443 101.79299188 -84.25 96.25 C-83.46625 95.60289062 -82.6825 94.95578125 -81.875 94.2890625 C-74.53483712 87.61844151 -68.74030149 78.30738579 -67.125 68.375 C-66.96742159 63.91304279 -67.95096883 60.07893192 -70.25 56.25 C-74.20490838 52.11532305 -77.66709297 50.38725884 -83.25 49.25 C-96.77476995 49.25 -107.29790489 55.78137354 -116.91796875 64.75 Z M-159.25 124.25 C-164.33792055 131.17453577 -167.25495226 136.38173705 -166.25 145.25 C-164.61312815 148.83552881 -163.56027417 150.04315055 -160.25 152.25 C-154.26377233 153.22734329 -150.51394932 151.25264584 -145.6171875 148.08984375 C-140.05119552 143.76380048 -136.36637255 137.95184642 -134.25 131.25 C-133.70552237 126.87149239 -133.76126612 123.39852462 -135.5 119.3125 C-137.95514343 116.4189381 -139.78739366 115.49376772 -143.5 114.875 C-149.98709973 115.75960451 -155.08229293 119.31455742 -159.25 124.25 Z " fill="#000000" transform="translate(255.25,48.75)"/>
</svg>
